<svg width="22" height="22" viewBox="0 0 22 22" fill="#1d1d1b" xmlns="http://www.w3.org/2000/svg">
    <path fill-rule="evenodd" clip-rule="evenodd"
          d="M15.1528 8.58658C15.1528 12.213 12.2129 15.1528 8.58658 15.1528C4.96017 15.1528 2.02037 12.213 2.02037 8.58658C2.02037 4.96016 4.96017 2.02037 8.58658 2.02037C12.2129 2.02037 15.1528 4.96016 15.1528 8.58658ZM15.3306 13.902C16.4845 12.4399 17.1732 10.5937 17.1732 8.58658C17.1732 3.84434 13.3288 0 8.58658 0C3.84436 0 0 3.84434 0 8.58658C0 13.3288 3.84436 17.1732 8.58658 17.1732C10.5937 17.1732 12.44 16.4845 13.902 15.3306L20.2755 21.7041C20.67 22.0986 21.3097 22.0986 21.7041 21.7041C22.0986 21.3097 22.0986 20.67 21.7041 20.2755L15.3306 13.902Z"/>
</svg>
